<svg xmlns="http://www.w3.org/2000/svg" width="1920" height="1024" viewBox="0 0 1920 1024" font-family="Inter, 'Helvetica Neue', Arial, sans-serif"><rect x="0" y="0" width="1920" height="1024" fill="#ffffff"/>
<text x="58" y="60" font-family="Inter, 'Helvetica Neue', Arial, sans-serif" font-size="17" font-weight="600" fill="#d61c74" text-anchor="start" letter-spacing="1.6">ARM ONE · INFORMATION ARCHITECTURE</text>
<text x="58" y="118" font-family="Inter, 'Helvetica Neue', Arial, sans-serif" font-size="50" font-weight="600" fill="#231019" text-anchor="start" letter-spacing="-1.2">One map for the whole suite</text>
<text x="58" y="156" font-family="Inter, 'Helvetica Neue', Arial, sans-serif" font-size="18" font-weight="400" fill="#8a7480" text-anchor="start">Five products behind one navigation. The bottom bar that shipped — five tabs — and everything that lives under each.</text>
<text x="58" y="182" font-family="Inter, 'Helvetica Neue', Arial, sans-serif" font-size="18" font-weight="400" fill="#8a7480" text-anchor="start">Built to absorb new products without a redesign.</text>
<text x="58" y="212" font-family="Inter, 'Helvetica Neue', Arial, sans-serif" font-size="12" font-weight="700" fill="#ab97a1" text-anchor="start" letter-spacing="0.8">PRIMARY NAVIGATION — THE 5-TAB BOTTOM BAR (SHIPPED)</text>
<rect x="56" y="224" width="1808" height="92" rx="18" fill="#ffffff" stroke="#ecdfe6" stroke-width="1"/>
<rect x="66.0" y="232" width="327.2" height="76" rx="14" fill="#d61c74"/>
<g transform="translate(216.6,249.0) scale(1.0833333333333333)" fill="none" stroke="#ffffff" stroke-width="2.1" stroke-linecap="round" stroke-linejoin="round"><path d="M3 10.5 12 3l9 7.5"/><path d="M5.5 9.5V20h13V9.5"/><path d="M10 20v-5h4v5"/></g>
<text x="229.6" y="298" font-family="Inter, 'Helvetica Neue', Arial, sans-serif" font-size="17" font-weight="700" fill="#ffffff" text-anchor="middle">Home</text>
<line x1="412.2" y1="242" x2="412.2" y2="298" stroke="#ecdfe6" stroke-width="1"/>
<g transform="translate(581.8,249.0) scale(1.0833333333333333)" fill="none" stroke="#8a7480" stroke-width="2" stroke-linecap="round" stroke-linejoin="round"><path d="M3 17l6-6 4 4 8-8"/><path d="M15 7h6v6"/></g>
<text x="594.8" y="298" font-family="Inter, 'Helvetica Neue', Arial, sans-serif" font-size="17" font-weight="600" fill="#231019" text-anchor="middle">Invest</text>
<line x1="777.4" y1="242" x2="777.4" y2="298" stroke="#ecdfe6" stroke-width="1"/>
<g transform="translate(947.0,249.0) scale(1.0833333333333333)" fill="none" stroke="#8a7480" stroke-width="2" stroke-linecap="round" stroke-linejoin="round"><path d="M4 8a2 2 0 0 1 2-2h12a2 2 0 0 1 2 2v9a2 2 0 0 1-2 2H6a2 2 0 0 1-2-2z"/><path d="M16 12.5h3"/><path d="M4 8V7a2 2 0 0 1 2-2h11"/></g>
<text x="960.0" y="298" font-family="Inter, 'Helvetica Neue', Arial, sans-serif" font-size="17" font-weight="600" fill="#231019" text-anchor="middle">Wallets</text>
<line x1="1142.6" y1="242" x2="1142.6" y2="298" stroke="#ecdfe6" stroke-width="1"/>
<g transform="translate(1312.1999999999998,249.0) scale(1.0833333333333333)" fill="none" stroke="#8a7480" stroke-width="2" stroke-linecap="round" stroke-linejoin="round"><path d="M12 21a9 9 0 1 1 9-9"/><path d="M12 12V3"/><path d="M12 12h9"/></g>
<text x="1325.1999999999998" y="298" font-family="Inter, 'Helvetica Neue', Arial, sans-serif" font-size="17" font-weight="600" fill="#231019" text-anchor="middle">Portfolio</text>
<line x1="1507.8" y1="242" x2="1507.8" y2="298" stroke="#ecdfe6" stroke-width="1"/>
<g transform="translate(1677.3999999999999,249.0) scale(1.0833333333333333)" fill="none" stroke="#8a7480" stroke-width="2" stroke-linecap="round" stroke-linejoin="round"><path d="M12 12a4 4 0 1 0 0-8 4 4 0 0 0 0 8z"/><path d="M5 20a7 7 0 0 1 14 0"/></g>
<text x="1690.3999999999999" y="298" font-family="Inter, 'Helvetica Neue', Arial, sans-serif" font-size="17" font-weight="600" fill="#231019" text-anchor="middle">Account</text>
<line x1="229.6" y1="316" x2="229.6" y2="338" stroke="#dcc7d2" stroke-width="1.4" stroke-dasharray="3 4"/>
<circle cx="229.6" cy="338" r="3" fill="#dcc7d2"/>
<line x1="594.8" y1="316" x2="594.8" y2="338" stroke="#dcc7d2" stroke-width="1.4" stroke-dasharray="3 4"/>
<circle cx="594.8" cy="338" r="3" fill="#dcc7d2"/>
<line x1="960.0" y1="316" x2="960.0" y2="338" stroke="#dcc7d2" stroke-width="1.4" stroke-dasharray="3 4"/>
<circle cx="960.0" cy="338" r="3" fill="#dcc7d2"/>
<line x1="1325.1999999999998" y1="316" x2="1325.1999999999998" y2="338" stroke="#dcc7d2" stroke-width="1.4" stroke-dasharray="3 4"/>
<circle cx="1325.1999999999998" cy="338" r="3" fill="#dcc7d2"/>
<line x1="1690.3999999999999" y1="316" x2="1690.3999999999999" y2="338" stroke="#dcc7d2" stroke-width="1.4" stroke-dasharray="3 4"/>
<circle cx="1690.3999999999999" cy="338" r="3" fill="#dcc7d2"/>
<rect x="58.0" y="350" width="343.2" height="74" rx="12" fill="#ffffff" stroke="#ecdfe6" stroke-width="1"/>
<rect x="58.0" y="364" width="3.5" height="46" rx="2" fill="#d61c74"/>
<text x="76.0" y="380" font-family="Inter, 'Helvetica Neue', Arial, sans-serif" font-size="15.5" font-weight="700" fill="#231019" text-anchor="start">Balances</text>
<text x="76.0" y="403" font-family="Inter, 'Helvetica Neue', Arial, sans-serif" font-size="13" font-weight="400" fill="#5c4651" text-anchor="start">Global · Investment · MFB · USD</text>
<rect x="58.0" y="442" width="343.2" height="74" rx="12" fill="#ffffff" stroke="#ecdfe6" stroke-width="1"/>
<rect x="58.0" y="456" width="3.5" height="46" rx="2" fill="#d61c74"/>
<text x="76.0" y="472" font-family="Inter, 'Helvetica Neue', Arial, sans-serif" font-size="15.5" font-weight="700" fill="#231019" text-anchor="start">Grow wealth</text>
<text x="76.0" y="495" font-family="Inter, 'Helvetica Neue', Arial, sans-serif" font-size="13" font-weight="400" fill="#5c4651" text-anchor="start">Invest &amp; Products — CTAs into the business</text>
<rect x="58.0" y="534" width="343.2" height="74" rx="12" fill="#ffffff" stroke="#ecdfe6" stroke-width="1"/>
<rect x="58.0" y="548" width="3.5" height="46" rx="2" fill="#d61c74"/>
<text x="76.0" y="564" font-family="Inter, 'Helvetica Neue', Arial, sans-serif" font-size="15.5" font-weight="700" fill="#231019" text-anchor="start">Banking (MFB)</text>
<text x="76.0" y="587" font-family="Inter, 'Helvetica Neue', Arial, sans-serif" font-size="13" font-weight="400" fill="#5c4651" text-anchor="start">Transfers · Pay bills · Top up</text>
<rect x="58.0" y="626" width="343.2" height="74" rx="12" fill="#ffffff" stroke="#ecdfe6" stroke-width="1"/>
<rect x="58.0" y="640" width="3.5" height="46" rx="2" fill="#d61c74"/>
<text x="76.0" y="656" font-family="Inter, 'Helvetica Neue', Arial, sans-serif" font-size="15.5" font-weight="700" fill="#231019" text-anchor="start">Client profiling</text>
<text x="76.0" y="679" font-family="Inter, 'Helvetica Neue', Arial, sans-serif" font-size="13" font-weight="400" fill="#5c4651" text-anchor="start">Assessment → tailored investments</text>
<rect x="58.0" y="718" width="343.2" height="74" rx="12" fill="#ffffff" stroke="#ecdfe6" stroke-width="1"/>
<rect x="58.0" y="732" width="3.5" height="46" rx="2" fill="#d61c74"/>
<text x="76.0" y="748" font-family="Inter, 'Helvetica Neue', Arial, sans-serif" font-size="15.5" font-weight="700" fill="#231019" text-anchor="start">Market news &amp; insights</text>
<text x="76.0" y="771" font-family="Inter, 'Helvetica Neue', Arial, sans-serif" font-size="13" font-weight="400" fill="#5c4651" text-anchor="start">Curated to the customer&#x27;s goals</text>
<rect x="58.0" y="810" width="343.2" height="74" rx="12" fill="#ffffff" stroke="#ecdfe6" stroke-width="1"/>
<rect x="58.0" y="824" width="3.5" height="46" rx="2" fill="#d61c74"/>
<text x="76.0" y="840" font-family="Inter, 'Helvetica Neue', Arial, sans-serif" font-size="15.5" font-weight="700" fill="#231019" text-anchor="start">Refer &amp; earn</text>
<text x="76.0" y="863" font-family="Inter, 'Helvetica Neue', Arial, sans-serif" font-size="13" font-weight="400" fill="#5c4651" text-anchor="start">Invite → reward</text>
<rect x="423.2" y="350" width="343.2" height="74" rx="12" fill="#ffffff" stroke="#ecdfe6" stroke-width="1"/>
<rect x="423.2" y="364" width="3.5" height="46" rx="2" fill="#dcc7d2"/>
<text x="441.2" y="380" font-family="Inter, 'Helvetica Neue', Arial, sans-serif" font-size="15.5" font-weight="700" fill="#231019" text-anchor="start">Our products</text>
<text x="441.2" y="403" font-family="Inter, 'Helvetica Neue', Arial, sans-serif" font-size="13" font-weight="400" fill="#5c4651" text-anchor="start">Funds · stocks · fixed income · pensions</text>
<rect x="423.2" y="442" width="343.2" height="74" rx="12" fill="#ffffff" stroke="#ecdfe6" stroke-width="1"/>
<rect x="423.2" y="456" width="3.5" height="46" rx="2" fill="#dcc7d2"/>
<text x="441.2" y="472" font-family="Inter, 'Helvetica Neue', Arial, sans-serif" font-size="15.5" font-weight="700" fill="#231019" text-anchor="start">Recommended for you</text>
<text x="441.2" y="495" font-family="Inter, 'Helvetica Neue', Arial, sans-serif" font-size="13" font-weight="400" fill="#5c4651" text-anchor="start">Matched to the risk profile</text>
<rect x="423.2" y="534" width="343.2" height="74" rx="12" fill="#ffffff" stroke="#ecdfe6" stroke-width="1"/>
<rect x="423.2" y="548" width="3.5" height="46" rx="2" fill="#dcc7d2"/>
<text x="441.2" y="564" font-family="Inter, 'Helvetica Neue', Arial, sans-serif" font-size="15.5" font-weight="700" fill="#231019" text-anchor="start">Goals</text>
<text x="441.2" y="587" font-family="Inter, 'Helvetica Neue', Arial, sans-serif" font-size="13" font-weight="400" fill="#5c4651" text-anchor="start">Set targets &amp; track progress</text>
<rect x="423.2" y="626" width="343.2" height="74" rx="12" fill="#ffffff" stroke="#ecdfe6" stroke-width="1"/>
<rect x="423.2" y="640" width="3.5" height="46" rx="2" fill="#dcc7d2"/>
<text x="441.2" y="656" font-family="Inter, 'Helvetica Neue', Arial, sans-serif" font-size="15.5" font-weight="700" fill="#231019" text-anchor="start">Investment calculator</text>
<text x="441.2" y="679" font-family="Inter, 'Helvetica Neue', Arial, sans-serif" font-size="13" font-weight="400" fill="#5c4651" text-anchor="start">Model potential outcomes</text>
<rect x="423.2" y="718" width="343.2" height="74" rx="12" fill="#ffffff" stroke="#ecdfe6" stroke-width="1"/>
<rect x="423.2" y="732" width="3.5" height="46" rx="2" fill="#dcc7d2"/>
<text x="441.2" y="748" font-family="Inter, 'Helvetica Neue', Arial, sans-serif" font-size="15.5" font-weight="700" fill="#231019" text-anchor="start">Investment letters</text>
<text x="441.2" y="771" font-family="Inter, 'Helvetica Neue', Arial, sans-serif" font-size="13" font-weight="400" fill="#5c4651" text-anchor="start">Request &amp; view</text>
<rect x="788.4" y="350" width="343.2" height="74" rx="12" fill="#ffffff" stroke="#ecdfe6" stroke-width="1"/>
<rect x="788.4" y="364" width="3.5" height="46" rx="2" fill="#dcc7d2"/>
<text x="806.4" y="380" font-family="Inter, 'Helvetica Neue', Arial, sans-serif" font-size="15.5" font-weight="700" fill="#231019" text-anchor="start">Wallets &amp; cards</text>
<text x="806.4" y="403" font-family="Inter, 'Helvetica Neue', Arial, sans-serif" font-size="13" font-weight="400" fill="#5c4651" text-anchor="start">Balances and cards in one place</text>
<rect x="788.4" y="442" width="343.2" height="74" rx="12" fill="#ffffff" stroke="#ecdfe6" stroke-width="1"/>
<rect x="788.4" y="456" width="3.5" height="46" rx="2" fill="#dcc7d2"/>
<text x="806.4" y="472" font-family="Inter, 'Helvetica Neue', Arial, sans-serif" font-size="15.5" font-weight="700" fill="#231019" text-anchor="start">Budgeting</text>
<text x="806.4" y="495" font-family="Inter, 'Helvetica Neue', Arial, sans-serif" font-size="13" font-weight="400" fill="#5c4651" text-anchor="start">Track spending vs investing</text>
<rect x="788.4" y="534" width="343.2" height="74" rx="12" fill="#ffffff" stroke="#ecdfe6" stroke-width="1"/>
<rect x="788.4" y="548" width="3.5" height="46" rx="2" fill="#dcc7d2"/>
<text x="806.4" y="564" font-family="Inter, 'Helvetica Neue', Arial, sans-serif" font-size="15.5" font-weight="700" fill="#231019" text-anchor="start">Move money</text>
<text x="806.4" y="587" font-family="Inter, 'Helvetica Neue', Arial, sans-serif" font-size="13" font-weight="400" fill="#5c4651" text-anchor="start">Transfers · Pay bills · Top up</text>
<rect x="788.4" y="626" width="343.2" height="74" rx="12" fill="#ffffff" stroke="#ecdfe6" stroke-width="1"/>
<rect x="788.4" y="640" width="3.5" height="46" rx="2" fill="#dcc7d2"/>
<text x="806.4" y="656" font-family="Inter, 'Helvetica Neue', Arial, sans-serif" font-size="15.5" font-weight="700" fill="#231019" text-anchor="start">Beneficiaries</text>
<text x="806.4" y="679" font-family="Inter, 'Helvetica Neue', Arial, sans-serif" font-size="13" font-weight="400" fill="#5c4651" text-anchor="start">Manage saved recipients</text>
<rect x="1153.6" y="350" width="343.2" height="74" rx="12" fill="#ffffff" stroke="#ecdfe6" stroke-width="1"/>
<rect x="1153.6" y="364" width="3.5" height="46" rx="2" fill="#dcc7d2"/>
<text x="1171.6" y="380" font-family="Inter, 'Helvetica Neue', Arial, sans-serif" font-size="15.5" font-weight="700" fill="#231019" text-anchor="start">Net worth</text>
<text x="1171.6" y="403" font-family="Inter, 'Helvetica Neue', Arial, sans-serif" font-size="13" font-weight="400" fill="#5c4651" text-anchor="start">Naira &amp; USD views</text>
<rect x="1153.6" y="442" width="343.2" height="74" rx="12" fill="#ffffff" stroke="#ecdfe6" stroke-width="1"/>
<rect x="1153.6" y="456" width="3.5" height="46" rx="2" fill="#dcc7d2"/>
<text x="1171.6" y="472" font-family="Inter, 'Helvetica Neue', Arial, sans-serif" font-size="15.5" font-weight="700" fill="#231019" text-anchor="start">My investments</text>
<text x="1171.6" y="495" font-family="Inter, 'Helvetica Neue', Arial, sans-serif" font-size="13" font-weight="400" fill="#5c4651" text-anchor="start">Every holding, one list</text>
<rect x="1153.6" y="534" width="343.2" height="74" rx="12" fill="#ffffff" stroke="#ecdfe6" stroke-width="1"/>
<rect x="1153.6" y="548" width="3.5" height="46" rx="2" fill="#dcc7d2"/>
<text x="1171.6" y="564" font-family="Inter, 'Helvetica Neue', Arial, sans-serif" font-size="15.5" font-weight="700" fill="#231019" text-anchor="start">Invested · last 30 days</text>
<text x="1171.6" y="587" font-family="Inter, 'Helvetica Neue', Arial, sans-serif" font-size="13" font-weight="400" fill="#5c4651" text-anchor="start">What&#x27;s been put to work</text>
<rect x="1153.6" y="626" width="343.2" height="74" rx="12" fill="#ffffff" stroke="#ecdfe6" stroke-width="1"/>
<rect x="1153.6" y="640" width="3.5" height="46" rx="2" fill="#dcc7d2"/>
<text x="1171.6" y="656" font-family="Inter, 'Helvetica Neue', Arial, sans-serif" font-size="15.5" font-weight="700" fill="#231019" text-anchor="start">Performance trend</text>
<text x="1171.6" y="679" font-family="Inter, 'Helvetica Neue', Arial, sans-serif" font-size="13" font-weight="400" fill="#5c4651" text-anchor="start">Growth over time</text>
<rect x="1518.8" y="350" width="343.2" height="74" rx="12" fill="#ffffff" stroke="#ecdfe6" stroke-width="1"/>
<rect x="1518.8" y="364" width="3.5" height="46" rx="2" fill="#dcc7d2"/>
<text x="1536.8" y="380" font-family="Inter, 'Helvetica Neue', Arial, sans-serif" font-size="15.5" font-weight="700" fill="#231019" text-anchor="start">Profile &amp; tier</text>
<text x="1536.8" y="403" font-family="Inter, 'Helvetica Neue', Arial, sans-serif" font-size="13" font-weight="400" fill="#5c4651" text-anchor="start">Details · upgrade account</text>
<rect x="1518.8" y="442" width="343.2" height="74" rx="12" fill="#ffffff" stroke="#ecdfe6" stroke-width="1"/>
<rect x="1518.8" y="456" width="3.5" height="46" rx="2" fill="#dcc7d2"/>
<text x="1536.8" y="472" font-family="Inter, 'Helvetica Neue', Arial, sans-serif" font-size="15.5" font-weight="700" fill="#231019" text-anchor="start">Security</text>
<text x="1536.8" y="495" font-family="Inter, 'Helvetica Neue', Arial, sans-serif" font-size="13" font-weight="400" fill="#5c4651" text-anchor="start">Password · PINs · biometrics</text>
<rect x="1518.8" y="534" width="343.2" height="74" rx="12" fill="#ffffff" stroke="#ecdfe6" stroke-width="1"/>
<rect x="1518.8" y="548" width="3.5" height="46" rx="2" fill="#dcc7d2"/>
<text x="1536.8" y="564" font-family="Inter, 'Helvetica Neue', Arial, sans-serif" font-size="15.5" font-weight="700" fill="#231019" text-anchor="start">Limits &amp; statements</text>
<text x="1536.8" y="587" font-family="Inter, 'Helvetica Neue', Arial, sans-serif" font-size="13" font-weight="400" fill="#5c4651" text-anchor="start">Transaction limits · frequency</text>
<rect x="1518.8" y="626" width="343.2" height="74" rx="12" fill="#ffffff" stroke="#ecdfe6" stroke-width="1"/>
<rect x="1518.8" y="640" width="3.5" height="46" rx="2" fill="#dcc7d2"/>
<text x="1536.8" y="656" font-family="Inter, 'Helvetica Neue', Arial, sans-serif" font-size="15.5" font-weight="700" fill="#231019" text-anchor="start">Notifications &amp; display</text>
<text x="1536.8" y="679" font-family="Inter, 'Helvetica Neue', Arial, sans-serif" font-size="13" font-weight="400" fill="#5c4651" text-anchor="start">Alerts · hide balance</text>
<rect x="1518.8" y="718" width="343.2" height="74" rx="12" fill="#ffffff" stroke="#ecdfe6" stroke-width="1"/>
<rect x="1518.8" y="732" width="3.5" height="46" rx="2" fill="#dcc7d2"/>
<text x="1536.8" y="748" font-family="Inter, 'Helvetica Neue', Arial, sans-serif" font-size="15.5" font-weight="700" fill="#231019" text-anchor="start">Support</text>
<text x="1536.8" y="771" font-family="Inter, 'Helvetica Neue', Arial, sans-serif" font-size="13" font-weight="400" fill="#5c4651" text-anchor="start">Chat · tickets · relationship manager</text>
<rect x="1518.8" y="810" width="343.2" height="74" rx="12" fill="#ffffff" stroke="#ecdfe6" stroke-width="1"/>
<rect x="1518.8" y="824" width="3.5" height="46" rx="2" fill="#dcc7d2"/>
<text x="1536.8" y="840" font-family="Inter, 'Helvetica Neue', Arial, sans-serif" font-size="15.5" font-weight="700" fill="#231019" text-anchor="start">Help</text>
<text x="1536.8" y="863" font-family="Inter, 'Helvetica Neue', Arial, sans-serif" font-size="13" font-weight="400" fill="#5c4651" text-anchor="start">Knowledge base · FAQs</text>
<rect x="1518.8" y="902" width="343.2" height="74" rx="12" fill="#ffffff" stroke="#ecdfe6" stroke-width="1"/>
<rect x="1518.8" y="916" width="3.5" height="46" rx="2" fill="#dcc7d2"/>
<text x="1536.8" y="932" font-family="Inter, 'Helvetica Neue', Arial, sans-serif" font-size="15.5" font-weight="700" fill="#231019" text-anchor="start">About ARM One · Log out</text>
</svg>